# xmcd
#
# Track frame offsets:
#	150
#	14880
#	27683
#	39366
#	64038
#	78947
#	93184
#	112259
#	125574
#	144283
#	159792
#	174490
#
# Disc length: 2487 seconds
#
# Revision: 1
# Processed by: cddbd v1.5.2PL0 Copyright (c) Steve Scherf et al.
# Submitted via: audiograbber 1.83.01
#
DISCID=9a09b50c
DTITLE=Kirby Knob Boys - Driftin' Away
DYEAR=2006
DGENRE=Bluegrass
TTITLE0=Gentle on My Mind
TTITLE1=Drifting Away
TTITLE2=C&O Canal
TTITLE3=North Country
TTITLE4=Elaine
TTITLE5=Seminole WInd
TTITLE6=Baby Blue
TTITLE7=Golden Frames
TTITLE8=Gray in Your Hair
TTITLE9=The Road
TTITLE10=Muddy Waters
TTITLE11=Wake Up Old Man
EXTD=
EXTT0=
EXTT1=
EXTT2=
EXTT3=
EXTT4=
EXTT5=
EXTT6=
EXTT7=
EXTT8=
EXTT9=
EXTT10=
EXTT11=
PLAYORDER=
